# xmcd
#
# Track frame offsets: 
#        180
#        15300
#        33268
#
# Disc length: 765 seconds
#
# Revision: 6
# Processed by: cddbd v1.5.2PL0 Copyright (c) Steve Scherf et al.
# Submitted via: ExactAudioCopy v0.95b4
#
DISCID=1302fb03
DTITLE=Matthias Rasch - Wenn du noch willst
DYEAR=1995
DGENRE=Schlager
TTITLE0=Wenn du noch willst
TTITLE1=Nie mehr allein sein
TTITLE2=Wenn du noch willst (Dance Version)
EXTD=
EXTT0=
EXTT1=
EXTT2=
PLAYORDER=
